<mxfile host="app.diagrams.net" modified="2022-03-14T03:40:10.323Z" agent="5.0 (Windows NT 10.0; Win64; x64) AppleWebKit/537.36 (KHTML, like Gecko) Chrome/99.0.4844.51 Safari/537.36" etag="cbnSRv3LlGafSsuLsKLX" version="17.1.2" type="github">
  <diagram id="S7AugZYE5G9ty0Hq1LgX" name="Page-1">
    <mxGraphModel dx="1209" dy="618" grid="1" gridSize="10" guides="1" tooltips="1" connect="1" arrows="1" fold="1" page="1" pageScale="1" pageWidth="827" pageHeight="1169" math="0" shadow="0">
      <root>
        <mxCell id="0" />
        <mxCell id="1" parent="0" />
        <mxCell id="_9jWtwOOx08zBpuzCTI9-5" style="edgeStyle=none;rounded=0;orthogonalLoop=1;jettySize=auto;html=1;exitX=0.5;exitY=0;exitDx=0;exitDy=0;entryX=0.5;entryY=1;entryDx=0;entryDy=0;" parent="1" source="_9jWtwOOx08zBpuzCTI9-1" target="_9jWtwOOx08zBpuzCTI9-2" edge="1">
          <mxGeometry relative="1" as="geometry" />
        </mxCell>
        <mxCell id="_9jWtwOOx08zBpuzCTI9-1" value="" style="ellipse;whiteSpace=wrap;html=1;aspect=fixed;fillColor=#FFD966;" parent="1" vertex="1">
          <mxGeometry x="360" y="650" width="40" height="40" as="geometry" />
        </mxCell>
        <mxCell id="_9jWtwOOx08zBpuzCTI9-6" style="edgeStyle=none;rounded=0;orthogonalLoop=1;jettySize=auto;html=1;exitX=0.5;exitY=0;exitDx=0;exitDy=0;entryX=0.5;entryY=1;entryDx=0;entryDy=0;" parent="1" source="_9jWtwOOx08zBpuzCTI9-2" target="_9jWtwOOx08zBpuzCTI9-4" edge="1">
          <mxGeometry relative="1" as="geometry" />
        </mxCell>
        <mxCell id="_9jWtwOOx08zBpuzCTI9-7" style="edgeStyle=none;rounded=0;orthogonalLoop=1;jettySize=auto;html=1;exitX=0.5;exitY=0;exitDx=0;exitDy=0;entryX=0.5;entryY=1;entryDx=0;entryDy=0;" parent="1" source="_9jWtwOOx08zBpuzCTI9-2" target="_9jWtwOOx08zBpuzCTI9-3" edge="1">
          <mxGeometry relative="1" as="geometry" />
        </mxCell>
        <mxCell id="_9jWtwOOx08zBpuzCTI9-22" style="edgeStyle=none;rounded=0;orthogonalLoop=1;jettySize=auto;html=1;exitX=1;exitY=1;exitDx=0;exitDy=0;entryX=1;entryY=0;entryDx=0;entryDy=0;fontColor=#99004D;" parent="1" source="_9jWtwOOx08zBpuzCTI9-2" target="_9jWtwOOx08zBpuzCTI9-1" edge="1">
          <mxGeometry relative="1" as="geometry" />
        </mxCell>
        <mxCell id="_9jWtwOOx08zBpuzCTI9-2" value="" style="ellipse;whiteSpace=wrap;html=1;aspect=fixed;fillColor=#FFD966;" parent="1" vertex="1">
          <mxGeometry x="360" y="560" width="40" height="40" as="geometry" />
        </mxCell>
        <mxCell id="_9jWtwOOx08zBpuzCTI9-8" style="edgeStyle=none;rounded=0;orthogonalLoop=1;jettySize=auto;html=1;exitX=0.5;exitY=0;exitDx=0;exitDy=0;" parent="1" source="_9jWtwOOx08zBpuzCTI9-3" edge="1">
          <mxGeometry relative="1" as="geometry">
            <mxPoint x="330" y="430" as="targetPoint" />
          </mxGeometry>
        </mxCell>
        <mxCell id="_9jWtwOOx08zBpuzCTI9-3" value="" style="ellipse;whiteSpace=wrap;html=1;aspect=fixed;fillColor=#9AC7BF;" parent="1" vertex="1">
          <mxGeometry x="300" y="490" width="40" height="40" as="geometry" />
        </mxCell>
        <mxCell id="_9jWtwOOx08zBpuzCTI9-11" style="edgeStyle=none;rounded=0;orthogonalLoop=1;jettySize=auto;html=1;exitX=0.5;exitY=0;exitDx=0;exitDy=0;entryX=0.5;entryY=1;entryDx=0;entryDy=0;" parent="1" source="_9jWtwOOx08zBpuzCTI9-4" target="_9jWtwOOx08zBpuzCTI9-10" edge="1">
          <mxGeometry relative="1" as="geometry" />
        </mxCell>
        <mxCell id="_9jWtwOOx08zBpuzCTI9-4" value="" style="ellipse;whiteSpace=wrap;html=1;aspect=fixed;fillColor=#FFD966;" parent="1" vertex="1">
          <mxGeometry x="400" y="480" width="40" height="40" as="geometry" />
        </mxCell>
        <mxCell id="_9jWtwOOx08zBpuzCTI9-17" style="edgeStyle=none;rounded=0;orthogonalLoop=1;jettySize=auto;html=1;exitX=1;exitY=0;exitDx=0;exitDy=0;fontColor=#99004D;entryX=0;entryY=1;entryDx=0;entryDy=0;" parent="1" source="_9jWtwOOx08zBpuzCTI9-9" target="_9jWtwOOx08zBpuzCTI9-15" edge="1">
          <mxGeometry relative="1" as="geometry">
            <mxPoint x="420" y="370" as="targetPoint" />
          </mxGeometry>
        </mxCell>
        <mxCell id="_9jWtwOOx08zBpuzCTI9-9" value="" style="ellipse;whiteSpace=wrap;html=1;aspect=fixed;fillColor=#9AC7BF;" parent="1" vertex="1">
          <mxGeometry x="310" y="390" width="40" height="40" as="geometry" />
        </mxCell>
        <mxCell id="_9jWtwOOx08zBpuzCTI9-16" style="edgeStyle=none;rounded=0;orthogonalLoop=1;jettySize=auto;html=1;exitX=0.5;exitY=0;exitDx=0;exitDy=0;entryX=0.5;entryY=1;entryDx=0;entryDy=0;fontColor=#99004D;" parent="1" source="_9jWtwOOx08zBpuzCTI9-10" target="_9jWtwOOx08zBpuzCTI9-15" edge="1">
          <mxGeometry relative="1" as="geometry" />
        </mxCell>
        <mxCell id="_9jWtwOOx08zBpuzCTI9-10" value="" style="ellipse;whiteSpace=wrap;html=1;aspect=fixed;fillColor=#FFD966;" parent="1" vertex="1">
          <mxGeometry x="390" y="400" width="40" height="40" as="geometry" />
        </mxCell>
        <mxCell id="_9jWtwOOx08zBpuzCTI9-12" value="&lt;font color=&quot;#99004d&quot;&gt;&lt;b&gt;branch&lt;/b&gt;&lt;/font&gt;" style="text;html=1;strokeColor=none;fillColor=none;align=center;verticalAlign=middle;whiteSpace=wrap;rounded=0;" parent="1" vertex="1">
          <mxGeometry x="290" y="550" width="60" height="30" as="geometry" />
        </mxCell>
        <mxCell id="_9jWtwOOx08zBpuzCTI9-13" value="&lt;font color=&quot;#99004d&quot;&gt;&lt;b&gt;checkout(switch) name/-&lt;/b&gt;&lt;/font&gt;" style="text;html=1;strokeColor=none;fillColor=none;align=center;verticalAlign=middle;whiteSpace=wrap;rounded=0;" parent="1" vertex="1">
          <mxGeometry x="380" y="530" width="200" height="30" as="geometry" />
        </mxCell>
        <mxCell id="_9jWtwOOx08zBpuzCTI9-14" value="&lt;font color=&quot;#99004d&quot;&gt;&lt;b&gt;branch -d&lt;/b&gt;&lt;/font&gt;" style="text;html=1;strokeColor=none;fillColor=none;align=center;verticalAlign=middle;whiteSpace=wrap;rounded=0;" parent="1" vertex="1">
          <mxGeometry x="280" y="360" width="60" height="30" as="geometry" />
        </mxCell>
        <mxCell id="_9jWtwOOx08zBpuzCTI9-15" value="" style="ellipse;whiteSpace=wrap;html=1;aspect=fixed;fillColor=#FFD966;" parent="1" vertex="1">
          <mxGeometry x="360" y="310" width="40" height="40" as="geometry" />
        </mxCell>
        <mxCell id="_9jWtwOOx08zBpuzCTI9-18" value="&lt;b&gt;merge&lt;/b&gt;" style="text;html=1;strokeColor=none;fillColor=none;align=center;verticalAlign=middle;whiteSpace=wrap;rounded=0;fontColor=#99004D;" parent="1" vertex="1">
          <mxGeometry x="350" y="370" width="60" height="30" as="geometry" />
        </mxCell>
        <mxCell id="_9jWtwOOx08zBpuzCTI9-19" value="&lt;h1&gt;branch&lt;/h1&gt;&lt;p&gt;&lt;b&gt;git merge --no--ff name&lt;/b&gt;&lt;/p&gt;&lt;p&gt;&lt;b&gt;git log --graph&lt;/b&gt;&lt;/p&gt;&lt;p&gt;&lt;b&gt;git reflog&lt;/b&gt;&lt;/p&gt;" style="text;html=1;strokeColor=none;fillColor=none;spacing=5;spacingTop=-20;whiteSpace=wrap;overflow=hidden;rounded=0;fontColor=#99004D;" parent="1" vertex="1">
          <mxGeometry x="530" y="340" width="190" height="120" as="geometry" />
        </mxCell>
        <mxCell id="_9jWtwOOx08zBpuzCTI9-21" value="&lt;b&gt;reset --hard hash/HEAD^/~100&lt;/b&gt;" style="text;html=1;strokeColor=none;fillColor=none;align=center;verticalAlign=middle;whiteSpace=wrap;rounded=0;fontColor=#99004D;" parent="1" vertex="1">
          <mxGeometry x="370" y="610" width="240" height="30" as="geometry" />
        </mxCell>
        <mxCell id="_9jWtwOOx08zBpuzCTI9-23" value="&amp;lt;&amp;lt;&amp;lt;&amp;lt;&amp;lt;&amp;lt;HEAD&lt;br&gt;A&lt;br&gt;========&lt;br&gt;B&lt;br&gt;&amp;gt;&amp;gt;&amp;gt;&amp;gt;&amp;gt;feature-A" style="shape=note;size=14;whiteSpace=wrap;html=1;fillColor=#dae8fc;strokeColor=#6c8ebf;" parent="1" vertex="1">
          <mxGeometry x="160" y="240" width="100" height="100" as="geometry" />
        </mxCell>
        <mxCell id="KKOz51-SKY4dZMHeqEcE-1" style="edgeStyle=none;rounded=0;orthogonalLoop=1;jettySize=auto;html=1;exitX=1;exitY=0.5;exitDx=0;exitDy=0;entryX=0;entryY=0.5;entryDx=0;entryDy=0;dashed=1;dashPattern=1 2;" edge="1" parent="1" source="_9jWtwOOx08zBpuzCTI9-24" target="_9jWtwOOx08zBpuzCTI9-9">
          <mxGeometry relative="1" as="geometry" />
        </mxCell>
        <mxCell id="_9jWtwOOx08zBpuzCTI9-24" value="&lt;font color=&quot;#000000&quot;&gt;&lt;b&gt;feature-A&lt;/b&gt;&lt;/font&gt;" style="text;html=1;strokeColor=none;fillColor=none;align=center;verticalAlign=middle;whiteSpace=wrap;rounded=0;fontColor=#99004D;" parent="1" vertex="1">
          <mxGeometry x="190" y="370" width="60" height="30" as="geometry" />
        </mxCell>
        <mxCell id="_9jWtwOOx08zBpuzCTI9-26" value="&lt;b&gt;&lt;font color=&quot;#000000&quot;&gt;conflict&lt;/font&gt;&lt;/b&gt;" style="text;html=1;strokeColor=none;fillColor=none;align=center;verticalAlign=middle;whiteSpace=wrap;rounded=0;fontColor=#99004D;rotation=40;" parent="1" vertex="1">
          <mxGeometry x="280" y="300" width="60" height="30" as="geometry" />
        </mxCell>
        <mxCell id="_9jWtwOOx08zBpuzCTI9-28" style="edgeStyle=none;rounded=0;orthogonalLoop=1;jettySize=auto;html=1;entryX=0.9;entryY=0.5;entryDx=0;entryDy=0;entryPerimeter=0;fontColor=#000000;dashed=1;" parent="1" source="_9jWtwOOx08zBpuzCTI9-18" target="_9jWtwOOx08zBpuzCTI9-23" edge="1">
          <mxGeometry relative="1" as="geometry" />
        </mxCell>
        <mxCell id="_9jWtwOOx08zBpuzCTI9-33" style="edgeStyle=none;rounded=0;orthogonalLoop=1;jettySize=auto;html=1;fontColor=#000000;dashed=1;dashPattern=1 2;" parent="1" target="_9jWtwOOx08zBpuzCTI9-15" edge="1">
          <mxGeometry relative="1" as="geometry">
            <mxPoint x="420" y="320" as="sourcePoint" />
          </mxGeometry>
        </mxCell>
        <mxCell id="_9jWtwOOx08zBpuzCTI9-30" value="&lt;font color=&quot;#000000&quot;&gt;&lt;b&gt;master&lt;/b&gt;&lt;/font&gt;" style="text;html=1;strokeColor=none;fillColor=none;align=center;verticalAlign=middle;whiteSpace=wrap;rounded=0;fontColor=#99004D;" parent="1" vertex="1">
          <mxGeometry x="410" y="300" width="60" height="30" as="geometry" />
        </mxCell>
        <mxCell id="_9jWtwOOx08zBpuzCTI9-32" style="edgeStyle=none;rounded=0;orthogonalLoop=1;jettySize=auto;html=1;exitX=0.5;exitY=1;exitDx=0;exitDy=0;fontColor=#000000;dashed=1;dashPattern=1 2;endArrow=classicThin;endFill=1;" parent="1" source="_9jWtwOOx08zBpuzCTI9-31" target="_9jWtwOOx08zBpuzCTI9-30" edge="1">
          <mxGeometry relative="1" as="geometry" />
        </mxCell>
        <mxCell id="_9jWtwOOx08zBpuzCTI9-31" value="&lt;font color=&quot;#000000&quot;&gt;&lt;b&gt;HEAD&lt;/b&gt;&lt;/font&gt;" style="text;html=1;strokeColor=none;fillColor=none;align=center;verticalAlign=middle;whiteSpace=wrap;rounded=0;fontColor=#99004D;" parent="1" vertex="1">
          <mxGeometry x="445" y="250" width="60" height="30" as="geometry" />
        </mxCell>
      </root>
    </mxGraphModel>
  </diagram>
</mxfile>
